PathFileType	4	(X/Y/Z)	C:/Users/opensim2020/Desktop/walking_exp_matlab/subject01_walking12_straight_02.trc	
DataRate	CameraRate	NumFrames	NumMarkers	Units	OrigDataRate	OrigDataStartFrame	OrigNumFrames	
100.00	100.00	5	44	mm	100.00	1323	122	
Frame#	Time	LFHD			RFHD			LBHD			RBHD			C7			T10			CLAV			STRN			RBAK			LSHO			LUPA			LELB			LFRM			LWRA			LWRB			LFIN			RSHO			RUPA			RELB			RFRM			RWRA			RWRB			RFIN			LASI			RASI			LPSI			RPSI			LTHI			LKNE			LTIB			LANK			LHEE			LTOE			RTHI			RKNE			RTIB			RANK			RHEE			RTOE			*39			*40			*41			*42			*43			
		X1	Y1	Z1	X2	Y2	Z2	X3	Y3	Z3	X4	Y4	Z4	X5	Y5	Z5	X6	Y6	Z6	X7	Y7	Z7	X8	Y8	Z8	X9	Y9	Z9	X10	Y10	Z10	X11	Y11	Z11	X12	Y12	Z12	X13	Y13	Z13	X14	Y14	Z14	X15	Y15	Z15	X16	Y16	Z16	X17	Y17	Z17	X18	Y18	Z18	X19	Y19	Z19	X20	Y20	Z20	X21	Y21	Z21	X22	Y22	Z22	X23	Y23	Z23	X24	Y24	Z24	X25	Y25	Z25	X26	Y26	Z26	X27	Y27	Z27	X28	Y28	Z28	X29	Y29	Z29	X30	Y30	Z30	X31	Y31	Z31	X32	Y32	Z32	X33	Y33	Z33	X34	Y34	Z34	X35	Y35	Z35	X36	Y36	Z36	X37	Y37	Z37	X38	Y38	Z38	X39	Y39	Z39	X40	Y40	Z40	X41	Y41	Z41	X42	Y42	Z42	X43	Y43	Z43	X44	Y44	Z44	

77	0.760	1499.56885	44.17427	1670.80518	1387.85242	24.59849	1674.24377	1486.29260	161.34373	1630.40698	1366.79419	143.47304	1632.81641	1440.40955	202.21181	1434.28821	1432.11047	236.15964	1139.51208	1449.79065	59.61263	1366.38354	1459.22241	14.58555	1213.21375	1358.61462	250.91722	1238.24622	1607.20618	130.36772	1397.82214	1688.38123	182.86209	1217.93127	1683.84839	207.46228	1066.96399	1708.79089	173.58568	957.29419	1695.51697	93.52036	841.96008	1711.69641	151.67361	836.82074	1723.07239	107.46127	764.63257	1294.04443	113.09074	1393.08679	1186.17712	156.41663	1192.37231	1180.12195	145.69919	1065.48914	1158.87695	89.68111	955.07086	1192.74207	-14.01377	863.31287	1149.99475	23.65064	851.76788	1157.04004	-32.24527	788.77863	1549.36023	59.93091	937.50818	1331.94592	56.87728	932.95605	1497.18591	245.09944	943.67371	1352.86169	242.10916	947.95135	1627.99023	-4.55021	629.84583	1616.59412	-32.06187	497.86475	1613.53040	63.42241	335.47421	1557.07092	141.75278	131.99179	1492.60693	177.60718	110.50087	1593.90662	23.56008	56.96778	1291.51465	138.04483	600.04065	1323.28699	148.43852	442.34164	1323.31555	222.06380	281.74982	1378.61169	275.33478	83.58130	1428.16370	329.54092	52.76550	1381.60974	139.47293	34.66045	1409.14819	36.43226	1708.55005	-3101.98535	1973.02356	1023.60522	-3140.81201	2012.50098	1021.98608						 
78	0.770	1500.54785	31.81293	1669.82227	1388.87903	12.26925	1673.44482	1487.27161	149.04892	1629.61682	1367.79431	131.28360	1632.19299	1441.09851	190.37483	1433.71924	1432.59424	224.70337	1138.93152	1450.56226	47.88077	1365.49817	1459.67480	3.15360	1212.21997	1358.90369	239.48920	1237.97717	1607.96594	118.69553	1396.81799	1688.49353	172.10155	1216.76355	1683.25903	197.76109	1066.29089	1707.67468	166.33698	955.95447	1693.63708	89.23541	838.66193	1710.18262	147.49048	834.91406	1720.64038	105.18990	761.35126	1294.88831	101.30637	1392.21729	1186.45459	143.61087	1191.95068	1179.65503	131.81047	1065.05493	1158.81555	72.79566	955.99432	1193.46265	-33.16122	867.33282	1150.56348	3.68110	854.71222	1157.81982	-53.90574	793.53821	1549.68018	48.34343	936.88690	1332.02686	46.09074	931.85132	1498.10620	233.80968	942.76276	1353.82288	231.34372	947.16833	1627.42749	-19.20245	630.86395	1616.24792	-47.57538	498.82385	1614.61572	40.00300	330.66049	1559.19629	106.44968	122.53894	1494.56470	140.71849	98.68240	1597.04932	-16.13786	55.66501	1291.91614	131.27597	599.66681	1323.44019	143.45755	442.06299	1323.58899	219.22987	282.43423	1378.68591	274.78076	84.72934	1428.30615	329.14307	54.49345	1381.64478	139.39005	34.65447	1410.15320	24.14771	1707.59814	-3101.98779	1973.07910	1023.36609	-3140.68555	2012.53906	1022.16650						 
79	0.780	1501.61255	19.46518	1668.79846	1389.91736	-0.00395	1672.46887	1488.35559	136.80481	1628.79382	1368.86523	119.10336	1631.52930	1441.84595	178.57655	1433.07825	1433.24304	213.12190	1138.19385	1451.35535	36.13961	1364.54089	1460.14758	-8.45359	1211.22437	1359.29016	227.91739	1237.52063	1608.77441	107.07432	1395.70789	1688.72888	161.26385	1215.54541	1682.80591	187.83273	1065.54504	1706.81921	158.93025	954.69525	1691.75391	84.72384	835.36517	1708.71521	142.90233	833.01196	1718.20471	102.55229	758.12720	1295.58472	89.36116	1391.85510	1186.86841	130.76894	1191.55249	1179.35571	118.07201	1064.66882	1158.91479	56.08481	957.13263	1194.07642	-52.47824	871.72736	1151.10303	-15.94636	857.88464	1158.81482	-75.35007	798.55573	1550.10339	36.61369	936.21643	1332.18079	35.32233	930.78137	1499.16394	222.29858	941.84967	1354.97522	220.62532	946.63336	1626.98267	-32.97710	631.40479	1616.04907	-62.06094	499.36273	1616.11963	16.76980	325.96716	1561.98682	70.79104	113.95242	1497.30444	103.77573	87.69748	1599.43640	-56.26965	54.61264	1292.33032	124.30027	599.63501	1323.72217	138.92000	442.05316	1323.76550	216.40430	283.29431	1378.78015	274.11600	86.15829	1428.44287	328.69064	56.24963	1381.62402	139.27914	34.59761	1411.26648	11.75690	1706.68616	-3102.02856	1972.97766	1023.99884	-3140.73071	2012.61780	1022.16003						 
80	0.790	1502.76868	7.09386	1667.74097	1390.98242	-12.31354	1671.49683	1489.47095	124.47028	1627.96704	1370.05725	106.86581	1630.76599	1442.64148	166.68590	1432.24695	1434.07397	201.57329	1137.41895	1452.17908	24.35150	1363.53015	1460.68298	-20.03648	1210.17444	1359.87561	216.26448	1236.95154	1609.68103	95.35827	1394.54065	1689.11743	150.42833	1214.32153	1682.48706	177.69928	1064.72021	1705.94897	150.94260	953.29980	1689.87073	79.88509	832.18762	1707.63330	138.01514	831.35498	1715.96155	99.48384	755.15460	1296.53955	77.57726	1391.02222	1187.37500	118.03857	1191.10718	1179.21704	104.47332	1064.29785	1159.18982	39.57730	958.32080	1195.04211	-71.03359	875.93457	1151.88501	-35.09345	861.21130	1159.84412	-96.04778	803.32330	1550.48401	24.65726	935.41309	1332.46448	24.38271	929.82397	1500.34021	210.69022	940.98846	1356.30579	209.64723	946.29016	1626.68921	-46.31598	632.13953	1615.95105	-75.46980	499.43976	1617.89099	-6.18087	321.52261	1564.90613	34.40057	105.61381	1500.75220	66.83748	77.48678	1601.18433	-96.66483	54.75307	1292.67102	117.22910	599.42529	1323.85535	133.97130	441.89691	1323.94519	213.55446	283.91702	1378.76611	273.30222	87.36870	1428.52588	328.21738	58.36593	1381.77881	139.39403	34.66641	1412.40234	-0.64595	1705.65405	-3101.93994	1973.05396	1023.39691	-3140.60767	2012.50415	1021.94159						 
81	0.800	1503.93774	-5.30702	1666.55566	1392.19189	-24.73461	1670.43530	1490.71680	112.16946	1627.09790	1371.19116	94.57558	1630.01318	1443.55176	154.80196	1431.41162	1435.05493	189.88513	1136.56201	1453.03552	12.54158	1362.50012	1461.32080	-31.80510	1209.12012	1360.53955	204.48882	1236.19995	1610.64832	83.60883	1393.34241	1689.54285	139.44322	1212.98047	1682.29797	167.34669	1063.76965	1705.27136	142.72408	951.90192	1688.17236	74.61784	829.12561	1706.51636	132.58624	829.60846	1713.84534	95.88773	752.35071	1297.34558	65.69424	1390.57178	1187.90881	105.31940	1190.65442	1179.24390	91.03778	1063.91455	1159.54968	23.33561	959.59808	1196.07031	-89.17099	880.14282	1152.75928	-53.97682	864.46094	1161.06470	-116.41937	808.20056	1550.92065	12.54516	934.53485	1332.71436	13.49241	928.77289	1501.57410	198.87645	940.21661	1357.69055	198.49644	946.12024	1626.01221	-58.27942	631.41406	1615.73193	-87.94489	498.82660	1619.76672	-28.88517	317.38776	1568.34033	-2.05556	98.26655	1504.75049	29.83769	68.30938	1602.07288	-136.98866	55.68681	1292.90112	110.13457	599.33246	1323.88599	129.01952	442.01080	1324.18945	210.64029	284.95993	1378.76526	272.52884	89.05020	1428.55115	327.69858	60.54933	1381.82031	139.22885	34.67356	1413.60913	-13.15764	1704.61816	-3101.87598	1973.08582	1023.87219	-3140.73999	2012.44226	1021.89569						 
